<svg xmlns="http://www.w3.org/2000/svg" xmlns:xlink="http://www.w3.org/1999/xlink" width="139.839" height="40.435" viewBox="0 0 139.839 40.435">
  <defs>
    <clipPath id="clip-path">
      <path id="Path_3" data-name="Path 3" d="M26.232,15.633H16.876L7.727,1.939V15.633H0v-38.96H7.727V-.288L16.308-13H25.2L15.532.644ZM29.823-16.8V-24h7.7v7.2Zm0,32.436V-13h7.727V15.633ZM45.1-16.8V-24h7.7v7.2Zm0,32.436V-13h7.727V15.633ZM74.326,8.747H77.84v6.886H72.361a10.031,10.031,0,0,1-7.43-2.731A10.137,10.137,0,0,1,62.2,5.408V-6.785H57.036V-8.442L68.33-20.479H69.8V-13h7.882v6.213H69.932V4.372a4.381,4.381,0,0,0,1.137,3.236A4.4,4.4,0,0,0,74.326,8.747Zm22.251,7.688a16,16,0,0,1-7.908-1.967,14.3,14.3,0,0,1-5.544-5.436,15.148,15.148,0,0,1-2-7.714,15.178,15.178,0,0,1,2-7.753,14.232,14.232,0,0,1,5.544-5.41A16.087,16.087,0,0,1,96.577-13.8a16.035,16.035,0,0,1,7.882,1.954,14.3,14.3,0,0,1,5.556,5.423,15.122,15.122,0,0,1,2.016,7.74,15.072,15.072,0,0,1-2.016,7.714,14.389,14.389,0,0,1-5.556,5.436A15.951,15.951,0,0,1,96.577,16.435ZM91.1,6.987a7.366,7.366,0,0,0,5.479,2.174,7.344,7.344,0,0,0,5.479-2.187A7.736,7.736,0,0,0,104.2,1.317a7.736,7.736,0,0,0-2.145-5.656,7.955,7.955,0,0,0-10.958,0,7.736,7.736,0,0,0-2.145,5.656A7.781,7.781,0,0,0,91.1,6.987Zm36.75,9.449a12.907,12.907,0,0,1-8.671-2.809,9.34,9.34,0,0,1-3.321-7.417h7.521a3.385,3.385,0,0,0,1.331,2.822,5.589,5.589,0,0,0,3.45.984,5.248,5.248,0,0,0,2.882-.751,2.38,2.38,0,0,0,1.176-2.123,1.931,1.931,0,0,0-.4-1.217,2.962,2.962,0,0,0-1.253-.867,11.16,11.16,0,0,0-1.68-.544q-.827-.194-2.171-.427-1.215-.207-2.042-.375t-2-.5a11.572,11.572,0,0,1-1.977-.738A11.09,11.09,0,0,1,119,1.4a5.921,5.921,0,0,1-1.421-1.488,7.656,7.656,0,0,1-.879-1.98,8.9,8.9,0,0,1-.349-2.563,8.087,8.087,0,0,1,3.179-6.614,12.9,12.9,0,0,1,8.322-2.55,12.471,12.471,0,0,1,8.3,2.628A8.674,8.674,0,0,1,139.3-4.248h-7.34a3.05,3.05,0,0,0-1.15-2.537,5.138,5.138,0,0,0-3.166-.854,4.645,4.645,0,0,0-2.8.751A2.355,2.355,0,0,0,123.816-4.9a2.037,2.037,0,0,0,.168.841,1.511,1.511,0,0,0,.594.647q.426.272.8.466a5.645,5.645,0,0,0,1.137.388q.762.194,1.241.285t1.46.272a29.379,29.379,0,0,1,6,1.553,7.332,7.332,0,0,1,4.626,7.248,8.516,8.516,0,0,1-3.282,7A13.528,13.528,0,0,1,127.847,16.435Z" transform="translate(0 24)" fill="none" clip-rule="evenodd"/>
    </clipPath>
    <clipPath id="clip-path-2">
      <path id="Path_2" data-name="Path 2" d="M-150,1342.389H2276.121V-56H-150Z" transform="translate(150 56)" fill="none"/>
    </clipPath>
  </defs>
  <g id="Group_6" data-name="Group 6" transform="translate(0 24)">
    <g id="Group_2" data-name="Group 2" transform="translate(0 -24)" clip-path="url(#clip-path)">
      <g id="Group_1" data-name="Group 1" transform="translate(-252.721 -53.914)" clip-path="url(#clip-path-2)">
        <path id="Path_1" data-name="Path 1" d="M-5-29H151.687V28.283H-5Z" transform="translate(249.297 74.49)" fill="#0170ff"/>
      </g>
    </g>
  </g>
</svg>
